<?xml version="1.0" encoding="UTF-8" standalone="no"?>
<svg width="166px" height="166px" viewBox="0 0 166 166" version="1.1" xmlns="http://www.w3.org/2000/svg" xmlns:xlink="http://www.w3.org/1999/xlink">
    <!-- Generator: Sketch 46.2 (44496) - http://www.bohemiancoding.com/sketch -->
    <title>Group 2</title>
    <desc>Created with Sketch.</desc>
    <defs></defs>
    <g id="Page-1" stroke="none" stroke-width="1" fill="none" fill-rule="evenodd">
        <g id="Group-2" transform="translate(3.000000, 3.000000)">
            <circle id="Oval" stroke="#FAC700" stroke-width="5" cx="80" cy="80" r="80"></circle>
            <g id="Group" transform="translate(26.000000, 39.000000)" fill-rule="nonzero" fill="#FAC700">
                <path d="M89.8081288,25 L19.1920917,25 C17.9814151,25 17,24.1044 17,23 C17,21.8954 17.9814151,21 19.1920917,21 L89.8079083,21 C91.0185849,21 92,21.8954 92,23 C92,24.1044 91.0188053,25 89.8081288,25 Z" id="Shape"></path>
                <path d="M89.8081288,39 L19.1920917,39 C17.9814151,39 17,38.1044 17,37 C17,35.8954 17.9814151,35 19.1920917,35 L89.8079083,35 C91.0185849,35 92,35.8954 92,37 C92,38.1044 91.0188053,39 89.8081288,39 Z" id="Shape"></path>
                <path d="M89.8081288,53 L19.1920917,53 C17.9814151,53 17,52.1044 17,51 C17,49.8954 17.9814151,49 19.1920917,49 L89.8079083,49 C91.0185849,49 92,49.8952 92,51 C92,52.1044 91.0188053,53 89.8081288,53 Z" id="Shape"></path>
                <path d="M86.8126041,94 C86.3047837,94 85.8024735,93.8196423 85.3993469,93.4719378 L63.5095102,74.585079 L15.013102,74.585079 C6.73479184,74.5848547 0,67.6922302 0,59.2199058 L0,15.3649489 C0,6.89262446 6.73479184,0 15.013102,0 L92.986898,0 C101.265208,0 108,6.89284879 108,15.3649489 L108,59.2199058 C108,67.6922302 101.265208,74.5848547 92.986898,74.5848547 L89.003902,74.5848547 L89.003902,91.7567453 C89.003902,92.6295957 88.5095265,93.4230349 87.7361143,93.7907043 C87.4409878,93.9311321 87.1258041,94 86.8126041,94 Z M15.013102,4.48650945 C9.15200816,4.48650945 4.38369796,9.36648577 4.38369796,15.3649489 L4.38369796,59.2199058 C4.38369796,65.2181446 9.15200816,70.0983452 15.013102,70.0983452 L64.3100327,70.0983452 C64.8271102,70.0983452 65.3274367,70.2854327 65.7230694,70.6264074 L84.6202041,86.9315044 L84.6202041,72.3416 C84.6202041,71.1026504 85.6016816,70.0983452 86.8121633,70.0983452 L92.986898,70.0983452 C98.8479918,70.0983452 103.616302,65.2181446 103.616302,59.2199058 L103.616302,15.3649489 C103.616302,9.36648577 98.8479918,4.48650945 92.986898,4.48650945 L15.013102,4.48650945 Z" id="Shape"></path>
            </g>
        </g>
    </g>
</svg>